# xmcd
#
# Track frame offsets:
#	150
#	10968
#	28464
#	41923
#	60116
#	78463
#	99398
#	115732
#	134974
#	157775
#	179917
#
# Disc length: 2669 seconds
#
# Revision: 1
# Processed by: cddbd v1.5.1PL0 Copyright (c) Steve Scherf et al.
# Submitted via: EasyCDDAExtractor 7.0.4.1
#
DISCID=940a6b0b
DTITLE=Sonny Terry and Brownie McGhee - At Sugar Hill
DYEAR=1900
DGENRE=Blues
TTITLE0=Hooray, Hooray, This Woman Is Killing Me
TTITLE1=Born To Live The Blues
TTITLE2=Just About Crazy
TTITLE3=Up, Sometimes Down
TTITLE4=Baby, I Knocked On Your Door
TTITLE5=Keep On Walking
TTITLE6=Baby, I Got My Eye On You
TTITLE7=I Got A Little Girl
TTITLE8=I Feel Alright Now
TTITLE9=Worry, Worry, Worry
TTITLE10=Sweet Woman Blues
EXTD=
EXTT0=
EXTT1=
EXTT2=
EXTT3=
EXTT4=
EXTT5=
EXTT6=
EXTT7=
EXTT8=
EXTT9=
EXTT10=
PLAYORDER=
